<?xml version="1.0" encoding="utf-8"?>
<!-- Generator: Adobe Illustrator 23.0.2, SVG Export Plug-In . SVG Version: 6.00 Build 0)  -->
<svg version="1.1" xmlns="http://www.w3.org/2000/svg" xmlns:xlink="http://www.w3.org/1999/xlink" x="0px" y="0px"
	 viewBox="0 0 800 600" style="enable-background:new 0 0 800 600;" xml:space="preserve">
<style type="text/css">
	.st0{fill:#F4EEE1;}
	.st1{fill:#FFFFFF;}
	.st2{font-family:'MyriadPro-Regular';}
	.st3{font-size:12px;}
</style>
<g id="Grid">
	<g id="XMLID_1_">
		<g>
			<path d="M800,601.7H0l-2-2V0l2-2.3h800l2,2.3v599.7L800,601.7z M798,597.7V535h-62.7v62.7H798z M798,531v-62.7h-62.7V531H798z
				 M798,464.3v-62.7h-62.7v62.7H798z M798,397.7V335h-62.7v62.7H798z M798,331v-62.7h-62.7V331H798z M798,264.3v-62.7h-62.7v62.7
				H798z M798,197.7V135h-62.7v62.7H798z M798,131V68.3h-62.7V131H798z M798,64.3V1.7h-62.7v62.7H798z M731.3,597.7V535h-62.7v62.7
				H731.3z M731.3,531v-62.7h-62.7V531H731.3z M731.3,464.3v-62.7h-62.7v62.7H731.3z M731.3,397.7V335h-62.7v62.7H731.3z M731.3,331
				v-62.7h-62.7V331H731.3z M731.3,264.3v-62.7h-62.7v62.7H731.3z M731.3,197.7V135h-62.7v62.7H731.3z M731.3,131V68.3h-62.7V131
				H731.3z M731.3,64.3V1.7h-62.7v62.7H731.3z M664.7,597.7V535H602v62.7H664.7z M664.7,531v-62.7H602V531H664.7z M664.7,464.3
				v-62.7H602v62.7H664.7z M664.7,397.7V335H602v62.7H664.7z M664.7,331v-62.7H602V331H664.7z M664.7,264.3v-62.7H602v62.7H664.7z
				 M664.7,197.7V135H602v62.7H664.7z M664.7,131V68.3H602V131H664.7z M664.7,64.3V1.7H602v62.7H664.7z M598,597.7V535h-62.7v62.7
				H598z M598,531v-62.7h-62.7V531H598z M598,464.3v-62.7h-62.7v62.7H598z M598,397.7V335h-62.7v62.7H598z M598,331v-62.7h-62.7V331
				H598z M598,264.3v-62.7h-62.7v62.7H598z M598,197.7V135h-62.7v62.7H598z M598,131V68.3h-62.7V131H598z M598,64.3V1.7h-62.7v62.7
				H598z M531.3,597.7V535h-62.7v62.7H531.3z M531.3,531v-62.7h-62.7V531H531.3z M531.3,464.3v-62.7h-62.7v62.7H531.3z M531.3,397.7
				V335h-62.7v62.7H531.3z M531.3,331v-62.7h-62.7V331H531.3z M531.3,264.3v-62.7h-62.7v62.7H531.3z M531.3,197.7V135h-62.7v62.7
				H531.3z M531.3,131V68.3h-62.7V131H531.3z M531.3,64.3V1.7h-62.7v62.7H531.3z M464.7,597.7V535H402v62.7H464.7z M464.7,531v-62.7
				H402V531H464.7z M464.7,464.3v-62.7H402v62.7H464.7z M464.7,397.7V335H402v62.7H464.7z M464.7,331v-62.7H402V331H464.7z
				 M464.7,264.3v-62.7H402v62.7H464.7z M464.7,197.7V135H402v62.7H464.7z M464.7,131V68.3H402V131H464.7z M464.7,64.3V1.7H402v62.7
				H464.7z M398,597.7V535h-62.7v62.7H398z M398,531v-62.7h-62.7V531H398z M398,464.3v-62.7h-62.7v62.7H398z M398,397.7V335h-62.7
				v62.7H398z M398,331v-62.7h-62.7V331H398z M398,264.3v-62.7h-62.7v62.7H398z M398,197.7V135h-62.7v62.7H398z M398,131V68.3h-62.7
				V131H398z M398,64.3V1.7h-62.7v62.7H398z M331.3,597.7V535h-62.7v62.7H331.3z M331.3,531v-62.7h-62.7V531H331.3z M331.3,464.3
				v-62.7h-62.7v62.7H331.3z M331.3,397.7V335h-62.7v62.7H331.3z M331.3,331v-62.7h-62.7V331H331.3z M331.3,264.3v-62.7h-62.7v62.7
				H331.3z M331.3,197.7V135h-62.7v62.7H331.3z M331.3,131V68.3h-62.7V131H331.3z M331.3,64.3V1.7h-62.7v62.7H331.3z M264.7,597.7
				V535H202v62.7H264.7z M264.7,531v-62.7H202V531H264.7z M264.7,464.3v-62.7H202v62.7H264.7z M264.7,397.7V335H202v62.7H264.7z
				 M264.7,331v-62.7H202V331H264.7z M264.7,264.3v-62.7H202v62.7H264.7z M264.7,197.7V135H202v62.7H264.7z M264.7,131V68.3H202V131
				H264.7z M264.7,64.3V1.7H202v62.7H264.7z M198,597.7V535h-62.7v62.7H198z M198,531v-62.7h-62.7V531H198z M198,464.3v-62.7h-62.7
				v62.7H198z M198,397.7V335h-62.7v62.7H198z M198,331v-62.7h-62.7V331H198z M198,264.3v-62.7h-62.7v62.7H198z M198,197.7V135
				h-62.7v62.7H198z M198,131V68.3h-62.7V131H198z M198,64.3V1.7h-62.7v62.7H198z M131.3,597.7V535H68.7v62.7H131.3z M131.3,531
				v-62.7H68.7V531H131.3z M131.3,464.3v-62.7H68.7v62.7H131.3z M131.3,397.7V335H68.7v62.7H131.3z M131.3,331v-62.7H68.7V331H131.3
				z M131.3,264.3v-62.7H68.7v62.7H131.3z M131.3,197.7V135H68.7v62.7H131.3z M131.3,131V68.3H68.7V131H131.3z M131.3,64.3V1.7H68.7
				v62.7H131.3z M64.7,597.7V535H2v62.7H64.7z M64.7,531v-62.7H2V531H64.7z M64.7,464.3v-62.7H2v62.7H64.7z M64.7,397.7V335H2v62.7
				H64.7z M64.7,331v-62.7H2V331H64.7z M64.7,264.3v-62.7H2v62.7H64.7z M64.7,197.7V135H2v62.7H64.7z M64.7,131V68.3H2V131H64.7z
				 M64.7,64.3V1.7H2v62.7H64.7z"/>
			<rect x="402" y="68.3" class="st0" width="62.7" height="62.7"/>
			<rect x="468.7" y="68.3" class="st0" width="62.7" height="62.7"/>
			<rect x="535.3" y="135" class="st0" width="62.7" height="62.7"/>
			<rect x="535.3" y="68.3" class="st0" width="62.7" height="62.7"/>
			<rect x="735.3" y="1.7" class="st0" width="62.7" height="62.7"/>
			<rect x="735.3" y="68.3" class="st0" width="62.7" height="62.7"/>
			<rect x="735.3" y="135" class="st0" width="62.7" height="62.7"/>
			<rect x="668.7" y="135" class="st0" width="62.7" height="62.7"/>
			<rect x="668.7" y="68.3" class="st0" width="62.7" height="62.7"/>
			<rect x="602" y="1.7" class="st0" width="62.7" height="62.7"/>
			<rect x="602" y="68.3" class="st0" width="62.7" height="62.7"/>
			<rect x="602" y="135" class="st0" width="62.7" height="62.7"/>
			<rect x="602" y="201.7" class="st0" width="62.7" height="62.7"/>
			<rect x="268.7" y="535" class="st0" width="62.7" height="62.7"/>
			<rect x="335.3" y="535" class="st0" width="62.7" height="62.7"/>
			<rect x="402" y="535" class="st0" width="62.7" height="62.7"/>
			<rect x="468.7" y="468.3" class="st0" width="62.7" height="62.7"/>
			<rect x="468.7" y="535" class="st0" width="62.7" height="62.7"/>
			<rect x="535.3" y="535" class="st0" width="62.7" height="62.7"/>
			<rect x="602" y="535" class="st0" width="62.7" height="62.7"/>
			<rect x="668.7" y="535" class="st0" width="62.7" height="62.7"/>
			<rect x="668.7" y="401.7" class="st0" width="62.7" height="62.7"/>
			<rect x="602" y="401.7" class="st0" width="62.7" height="62.7"/>
			<rect x="535.3" y="401.7" class="st0" width="62.7" height="62.7"/>
			<rect x="468.7" y="401.7" class="st0" width="62.7" height="62.7"/>
			<rect x="602" y="268.3" class="st0" width="62.7" height="62.7"/>
			<rect x="535.3" y="268.3" class="st0" width="62.7" height="62.7"/>
			<rect x="468.7" y="335" class="st0" width="62.7" height="62.7"/>
			<rect x="468.7" y="201.7" class="st0" width="62.7" height="62.7"/>
			<rect x="468.7" y="268.3" class="st0" width="62.7" height="62.7"/>
			<rect x="402" y="268.3" class="st0" width="62.7" height="62.7"/>
			<rect x="335.3" y="268.3" class="st0" width="62.7" height="62.7"/>
			<rect x="268.7" y="401.7" class="st0" width="62.7" height="62.7"/>
			<rect x="268.7" y="335" class="st0" width="62.7" height="62.7"/>
			<rect x="268.7" y="201.7" class="st0" width="62.7" height="62.7"/>
			<rect x="268.7" y="268.3" class="st0" width="62.7" height="62.7"/>
			<rect x="202" y="268.3" class="st0" width="62.7" height="62.7"/>
			<rect x="135.3" y="268.3" class="st0" width="62.7" height="62.7"/>
			<rect x="68.7" y="268.3" class="st0" width="62.7" height="62.7"/>
			<rect x="2" y="268.3" class="st0" width="62.7" height="62.7"/>
			<rect x="735.3" y="535" class="st1" width="62.7" height="62.7"/>
			<rect x="735.3" y="468.3" class="st1" width="62.7" height="62.7"/>
			<rect x="735.3" y="401.7" class="st1" width="62.7" height="62.7"/>
			<rect x="735.3" y="335" class="st1" width="62.7" height="62.7"/>
			<rect x="735.3" y="268.3" class="st1" width="62.7" height="62.7"/>
			<rect x="735.3" y="201.7" class="st1" width="62.7" height="62.7"/>
			<rect x="668.7" y="468.3" class="st1" width="62.7" height="62.7"/>
			<rect x="668.7" y="335" class="st1" width="62.7" height="62.7"/>
			<rect x="668.7" y="268.3" class="st1" width="62.7" height="62.7"/>
			<rect x="668.7" y="201.7" class="st1" width="62.7" height="62.7"/>
			<rect x="668.7" y="1.7" class="st1" width="62.7" height="62.7"/>
			<rect x="602" y="468.3" class="st1" width="62.7" height="62.7"/>
			<rect x="602" y="335" class="st1" width="62.7" height="62.7"/>
			<rect x="535.3" y="468.3" class="st1" width="62.7" height="62.7"/>
			<rect x="535.3" y="335" class="st1" width="62.7" height="62.7"/>
			<rect x="535.3" y="201.7" class="st1" width="62.7" height="62.7"/>
			<rect x="535.3" y="1.7" class="st1" width="62.7" height="62.7"/>
			<rect x="468.7" y="135" class="st1" width="62.7" height="62.7"/>
			<rect x="468.7" y="1.7" class="st1" width="62.7" height="62.7"/>
			<rect x="402" y="468.3" class="st1" width="62.7" height="62.7"/>
			<rect x="402" y="401.7" class="st1" width="62.7" height="62.7"/>
			<rect x="402" y="335" class="st1" width="62.7" height="62.7"/>
			<rect x="402" y="201.7" class="st1" width="62.7" height="62.7"/>
			<rect x="402" y="135" class="st1" width="62.7" height="62.7"/>
			<rect x="402" y="1.7" class="st1" width="62.7" height="62.7"/>
			<rect x="335.3" y="468.3" class="st1" width="62.7" height="62.7"/>
			<rect x="335.3" y="401.7" class="st1" width="62.7" height="62.7"/>
			<rect x="335.3" y="335" class="st1" width="62.7" height="62.7"/>
			<rect x="335.3" y="201.7" class="st1" width="62.7" height="62.7"/>
			<rect x="335.3" y="135" class="st1" width="62.7" height="62.7"/>
			<rect x="335.3" y="68.3" class="st1" width="62.7" height="62.7"/>
			<rect x="335.3" y="1.7" class="st1" width="62.7" height="62.7"/>
			<rect x="268.7" y="468.3" class="st1" width="62.7" height="62.7"/>
			<rect x="268.7" y="135" class="st1" width="62.7" height="62.7"/>
			<rect x="268.7" y="68.3" class="st1" width="62.7" height="62.7"/>
			<rect x="268.7" y="1.7" class="st1" width="62.7" height="62.7"/>
			<rect x="202" y="535" class="st1" width="62.7" height="62.7"/>
			<rect x="202" y="468.3" class="st1" width="62.7" height="62.7"/>
			<rect x="202" y="401.7" class="st1" width="62.7" height="62.7"/>
			<rect x="202" y="335" class="st1" width="62.7" height="62.7"/>
			<rect x="202" y="201.7" class="st1" width="62.7" height="62.7"/>
			<rect x="202" y="135" class="st1" width="62.7" height="62.7"/>
			<rect x="202" y="68.3" class="st1" width="62.7" height="62.7"/>
			<rect x="202" y="1.7" class="st1" width="62.7" height="62.7"/>
			<rect x="135.3" y="535" class="st1" width="62.7" height="62.7"/>
			<rect x="135.3" y="468.3" class="st1" width="62.7" height="62.7"/>
			<rect x="135.3" y="401.7" class="st1" width="62.7" height="62.7"/>
			<rect x="135.3" y="335" class="st1" width="62.7" height="62.7"/>
			<rect x="135.3" y="201.7" class="st1" width="62.7" height="62.7"/>
			<rect x="135.3" y="135" class="st1" width="62.7" height="62.7"/>
			<rect x="135.3" y="68.3" class="st1" width="62.7" height="62.7"/>
			<rect x="135.3" y="1.7" class="st1" width="62.7" height="62.7"/>
			<rect x="68.7" y="535" class="st1" width="62.7" height="62.7"/>
			<rect x="68.7" y="468.3" class="st1" width="62.7" height="62.7"/>
			<rect x="68.7" y="401.7" class="st1" width="62.7" height="62.7"/>
			<rect x="68.7" y="335" class="st1" width="62.7" height="62.7"/>
			<rect x="68.7" y="201.7" class="st1" width="62.7" height="62.7"/>
			<rect x="68.7" y="135" class="st1" width="62.7" height="62.7"/>
			<rect x="68.7" y="68.3" class="st1" width="62.7" height="62.7"/>
			<rect x="68.7" y="1.7" class="st1" width="62.7" height="62.7"/>
			<rect x="2" y="535" class="st1" width="62.7" height="62.7"/>
			<rect x="2" y="468.3" class="st1" width="62.7" height="62.7"/>
			<rect x="2" y="401.7" class="st1" width="62.7" height="62.7"/>
			<rect x="2" y="335" class="st1" width="62.7" height="62.7"/>
			<rect x="2" y="201.7" class="st1" width="62.7" height="62.7"/>
			<rect x="2" y="135" class="st1" width="62.7" height="62.7"/>
			<rect x="2" y="68.3" class="st1" width="62.7" height="62.7"/>
			<rect x="2" y="1.7" class="st1" width="62.7" height="62.7"/>
		</g>
		<g>
		</g>
	</g>
</g>
<g id="Text">
	<g id="JAVASCRIPT">
		<g id="JAVASCRIPT_1_">
			<path d="M21.7,325.3c-2.3-1.1-4.1-2.6-5.6-4.6l5.9-4.2c0.7,1.1,1.6,2,2.8,2.7c1.2,0.6,2.7,0.9,4.3,0.9c2.8,0,5-0.9,6.5-2.6
				c1.5-1.7,2.3-4.2,2.3-7.3v-34.8h7.2v34.9c0,3.5-0.6,6.6-1.9,9.1c-1.2,2.5-3.1,4.4-5.4,5.7c-2.4,1.3-5.3,2-8.6,2
				C26.5,327,24,326.4,21.7,325.3z"/>
		</g>
	</g>
	<g>
		<g>
			<path d="M88.4,324.2c-2.2-1.9-3.3-4.7-3.3-8.5c0-3.6,1-6.3,3.1-8.1c2-1.8,5.1-2.7,9.2-2.7h10.4l0.5,5.8H97.4
				c-1.9,0-3.3,0.4-4.2,1.2c-0.9,0.8-1.4,2.1-1.4,3.8c0,1.9,0.6,3.2,1.8,4.1c1.2,0.9,3.1,1.3,5.6,1.3c2.7,0,4.8-0.3,6.1-0.9
				c1.3-0.6,2-1.5,2-2.7l0.7,5.1c-0.6,1-1.4,1.8-2.3,2.4c-0.9,0.6-2,1.1-3.2,1.4c-1.2,0.3-2.6,0.5-4.1,0.5
				C94,327,90.6,326,88.4,324.2z M107.4,303.3c0-2.4-0.6-4.2-1.9-5.6c-1.3-1.3-3.1-2-5.4-2c-1.5,0-2.9,0.2-4.3,0.7
				c-1.4,0.4-2.6,1.1-3.7,1.9l-5.2-3.6c1.4-1.7,3.2-3,5.5-3.9c2.3-0.9,4.8-1.4,7.5-1.4c3,0,5.6,0.5,7.8,1.6c2.2,1.1,3.8,2.6,4.9,4.6
				c1.1,2,1.7,4.5,1.7,7.3v23.4h-6.8V303.3z"/>
		</g>
	</g>
	<g>
		<g>
			<path d="M175.4,290h7.5l-13.7,36.5h-5.4L150.1,290h7.5l8.9,26.1L175.4,290z"/>
		</g>
	</g>
	<g>
		<g>
			<path d="M221.4,324.2c-2.2-1.9-3.3-4.7-3.3-8.5c0-3.6,1-6.3,3.1-8.1c2-1.8,5.1-2.7,9.2-2.7h10.4l0.5,5.8h-10.8
				c-1.9,0-3.3,0.4-4.2,1.2c-0.9,0.8-1.4,2.1-1.4,3.8c0,1.9,0.6,3.2,1.8,4.1c1.2,0.9,3.1,1.3,5.6,1.3c2.7,0,4.8-0.3,6.1-0.9
				c1.3-0.6,2-1.5,2-2.7l0.7,5.1c-0.6,1-1.4,1.8-2.3,2.4c-0.9,0.6-2,1.1-3.2,1.4c-1.2,0.3-2.6,0.5-4.1,0.5
				C227,327,223.6,326,221.4,324.2z M240.4,303.3c0-2.4-0.6-4.2-1.9-5.6c-1.3-1.3-3.1-2-5.4-2c-1.5,0-2.9,0.2-4.3,0.7
				c-1.4,0.4-2.6,1.1-3.7,1.9l-5.2-3.6c1.4-1.7,3.2-3,5.5-3.9c2.3-0.9,4.8-1.4,7.5-1.4c3,0,5.6,0.5,7.8,1.6c2.2,1.1,3.8,2.6,4.9,4.6
				c1.1,2,1.7,4.5,1.7,7.3v23.4h-6.8V303.3z"/>
		</g>
	</g>
	<g>
		<g>
			<path d="M296.2,327c0,0-1.1-0.2-3.3-0.7c-2.2-0.5-4.3-1.2-6.2-2.1c-1.9-0.9-3.7-2.1-5.4-3.5l4.5-5.5c1.9,1.7,4.1,3,6.4,3.8
				c2.3,0.8,4.9,1.3,7.6,1.3c3.7,0,6.6-0.7,8.6-2.1s3.1-3.3,3.1-5.8v0c0-1.8-0.5-3.2-1.4-4.2c-0.9-1-2.1-1.8-3.6-2.3
				c-1.5-0.5-3.4-1-5.7-1.4c-0.1,0-0.1,0-0.2,0c-0.1,0-0.2,0-0.2,0l-0.5-0.1c-3.4-0.6-6.2-1.2-8.3-2s-4-2.1-5.5-4
				c-1.5-2-2.3-4.7-2.3-8.3v0c0-3.2,0.7-5.9,2.1-8.1c1.4-2.2,3.5-3.9,6.2-5.1c2.7-1.2,6-1.8,9.8-1.8c1.8,0,3.6,0.2,5.4,0.6
				c1.8,0.4,3.5,1,5.2,1.8c1.7,0.8,3.4,1.8,5.1,3l-4.1,5.7c-1.9-1.4-3.9-2.5-5.8-3.2c-1.9-0.7-3.9-1.1-5.8-1.1
				c-3.5,0-6.2,0.7-8.1,2.1c-1.9,1.4-2.9,3.4-2.9,5.9v0c0,1.8,0.5,3.1,1.5,4.1c1,1,2.2,1.8,3.7,2.2c1.5,0.5,3.6,1,6.2,1.5
				c0.1,0,0.2,0,0.3,0.1c0.1,0,0.2,0,0.3,0.1c0.1,0,0.2,0,0.4,0.1c0.1,0,0.3,0,0.4,0.1c3.1,0.6,5.7,1.4,7.8,2.3
				c2.1,0.9,3.8,2.3,5.2,4.2c1.4,1.9,2.1,4.6,2.1,7.9v0.1c0,3.1-0.7,5.8-2.2,8s-3.6,3.9-6.4,5.1c-2.8,1.2-6.2,1.7-10.1,1.7
				C297.4,327,296.2,327,296.2,327z"/>
		</g>
	</g>
	<g>
		<g>
			<path d="M290.9,391.6c-2.7-1.6-4.8-3.8-6.3-6.6c-1.5-2.8-2.2-6.1-2.2-9.9v-14.5c0-3.7,0.7-7,2.2-9.9c1.5-2.8,3.6-5.1,6.3-6.6
				c2.7-1.6,5.9-2.3,9.4-2.3c3.6,0,6.7,0.8,9.4,2.3c2.7,1.6,4.8,3.8,6.3,6.6c1.5,2.8,2.2,6.1,2.2,9.9v14.5c0,3.8-0.7,7-2.2,9.9
				c-1.5,2.8-3.6,5.1-6.3,6.6c-2.7,1.6-5.9,2.3-9.4,2.3C296.8,394,293.6,393.2,290.9,391.6z M305.9,385.5c1.6-0.9,2.8-2.3,3.7-4
				c0.9-1.7,1.3-3.8,1.3-6.1v-15c0-2.3-0.4-4.3-1.3-6.1c-0.9-1.7-2.1-3.1-3.7-4c-1.6-0.9-3.5-1.4-5.6-1.4s-4,0.5-5.6,1.4
				c-1.6,0.9-2.8,2.3-3.7,4c-0.9,1.7-1.3,3.8-1.3,6.1v15c0,2.3,0.4,4.3,1.3,6.1c0.9,1.7,2.1,3.1,3.7,4c1.6,0.9,3.5,1.4,5.6,1.4
				S304.3,386.4,305.9,385.5z"/>
		</g>
	</g>
	<g>
		<g>
			<path d="M281.5,409.3h6.5l25,39.5l-0.8,0.9v-40.4h7.1v51.1h-6.6l-24.9-38.9l0.8-0.9v39.8h-7.1V409.3z"/>
		</g>
	</g>
	<g id="JSON_1_">
		<g id="JSON_2_">
			<path d="M288.7,258.3c-2.3-1.1-4.1-2.6-5.6-4.6l5.9-4.2c0.7,1.1,1.6,2,2.8,2.7c1.2,0.6,2.7,0.9,4.3,0.9c2.8,0,5-0.9,6.5-2.6
				c1.5-1.7,2.3-4.2,2.3-7.3v-34.8h7.2v34.9c0,3.5-0.6,6.6-1.9,9.1c-1.2,2.5-3.1,4.4-5.4,5.7c-2.4,1.3-5.3,2-8.6,2
				C293.5,260,291,259.4,288.7,258.3z"/>
		</g>
	</g>
	<g>
		<g>
			<path d="M364.8,327c0,0-1.2-0.6-3.5-1.9c-2.4-1.2-4.2-3-5.4-5.4c-1.2-2.4-1.9-5.2-1.9-8.6v-6c0-3.3,0.6-6.1,1.9-8.5
				c1.2-2.3,3-4.1,5.4-5.4s5.2-1.8,8.5-1.8c1.9,0,3.7,0.2,5.4,0.7c1.7,0.5,3.2,1.1,4.5,2c1.3,0.9,2.4,1.9,3.3,3.2l-5.2,4.6
				c-1-1.2-2.2-2.1-3.6-2.7c-1.4-0.6-2.8-0.9-4.3-0.9c-2.8,0-4.9,0.8-6.4,2.3c-1.5,1.5-2.3,3.7-2.3,6.5v6c0,2.9,0.8,5.1,2.3,6.7
				c1.5,1.6,3.7,2.4,6.5,2.4c1.5,0,3-0.3,4.4-1c1.4-0.7,2.6-1.6,3.6-2.9l5.2,5c-0.9,1.2-2,2.3-3.4,3.1c-1.3,0.9-2.8,1.5-4.5,2
				c-1.7,0.4-3.5,0.7-5.3,0.7C366.4,327,364.8,327,364.8,327z"/>
		</g>
	</g>
	<g>
		<g>
			<path d="M424.6,290h7.2v36.5h-7.2V290z M442.3,296.8c-1-0.4-2.1-0.6-3.3-0.6c-2.3,0-4,0.6-5.3,1.9c-1.3,1.3-1.9,3-1.9,5.2l-0.7-7
				c1.1-2.2,2.6-3.9,4.4-5.1c1.8-1.2,3.7-1.8,5.9-1.8c1.7,0,3.2,0.2,4.5,0.7c1.3,0.5,2.5,1.2,3.5,2.1l-4.7,6.3
				C444,297.8,443.2,297.2,442.3,296.8z"/>
		</g>
	</g>
	<g>
		<g>
			<path d="M496.9,275.3h7.2v7.2h-7.2V275.3z M496.9,290h7.2v36.5h-7.2V290z"/>
		</g>
	</g>
	<g id="GITHUB_1_">
		<g id="GITHUB_2_">
			<path d="M518.3,231.9v8.9c0,3.8-0.7,7.1-2.2,10c-1.5,2.9-3.6,5.1-6.3,6.7s-5.8,2.4-9.4,2.4c-3.6,0-6.8-0.7-9.5-2.2
				c-2.7-1.5-4.8-3.6-6.3-6.3c-1.5-2.7-2.3-5.9-2.3-9.5v-15.1c0-3.8,0.7-7.1,2.2-10s3.6-5.1,6.3-6.7s5.8-2.4,9.4-2.4
				c2.9,0,5.6,0.6,8.1,1.9c2.5,1.3,4.5,3,6.2,5.3c1.7,2.3,2.8,5,3.4,8h-7.8c-0.4-1.7-1.1-3.2-2.1-4.4c-1-1.2-2.2-2.2-3.6-2.8
				c-1.4-0.6-2.8-1-4.2-1c-2.1,0-4,0.5-5.6,1.5c-1.6,1-2.8,2.4-3.7,4.2c-0.9,1.8-1.3,3.9-1.3,6.3V242c0,2.2,0.4,4.1,1.3,5.8
				c0.9,1.7,2.1,2.9,3.8,3.8c1.6,0.9,3.5,1.4,5.6,1.4c2.1,0,4-0.5,5.6-1.4c1.6-0.9,2.8-2.3,3.7-4.1c0.9-1.8,1.3-3.9,1.3-6.4v-2.2
				h-10.4v-6.9H518.3z"/>
		</g>
	</g>
	<g>
		<g>
			<path d="M491.4,357h16.5v6.5h-16.5V357z M497.2,391.2c-1.4-1.6-2.1-4-2.1-7.2v-37.6h7.2V384c0,0.9,0.2,1.6,0.5,2.1
				c0.4,0.5,0.9,0.7,1.5,0.7h3.4v6.8h-4.1C500.8,393.6,498.6,392.8,497.2,391.2z"/>
		</g>
	</g>
	<g>
		<g>
			<path d="M482.2,409.3h7.2v51.1h-7.2V409.3z M486.7,431.9h28.4v6.8h-28.4V431.9z M511.3,409.3h7.2v51.1h-7.2V409.3z"/>
		</g>
	</g>
	<g>
		<g>
			<path d="M548.3,409.3h36.1v6.8h-36.1V409.3z M562.7,413.5h7.2v46.9h-7.2V413.5z"/>
		</g>
	</g>
	<g>
		<g>
			<path d="M648.3,409.3h6.7v51.1h-7v-38.3l0.4,2.3l-12.6,28.9h-5l-12.6-28.2l0.4-3v38.3h-7v-51.1h6.7l15,33.8L648.3,409.3z"/>
		</g>
	</g>
	<g>
		<g>
			<path d="M686,409.3h7.2v51.1H686V409.3z M689.6,453.6h29.3v6.8h-29.3V453.6z"/>
		</g>
	</g>
	<g>
		<g>
			<path d="M493.1,513.1c0,2.6,0.7,4.5,2,5.9s3.1,2.1,5.5,2.1c2.3,0,4.2-0.6,5.4-1.9c1.3-1.2,1.9-3,1.9-5.3l0.5,7.6
				c-0.8,1.8-2,3.3-3.7,4.5s-3.8,1.8-6.2,1.8c-4,0-7.1-1.3-9.3-3.9c-2.2-2.6-3.3-6.2-3.3-11V491h7.2V513.1z M507.9,491h7.1v36.5
				h-7.1V491z"/>
		</g>
	</g>
	<g id="b">
		<g id="b_1_">
			<path d="M486.4,543.3h7.2v51.1h-7.2V543.3z M496.8,593.3c-1.7-1.1-2.9-2.6-3.7-4.6l0.5-7.6c0,1.6,0.3,2.9,0.8,4s1.4,1.9,2.4,2.5
				c1.1,0.6,2.4,0.9,3.9,0.9c2.4,0,4.2-0.7,5.5-2.2s2-3.5,2-6.1v-7.9c0-2.7-0.7-4.7-2-6.2s-3.1-2.2-5.5-2.2c-1.5,0-2.8,0.3-3.9,0.8
				c-1.1,0.6-1.9,1.4-2.4,2.5s-0.8,2.4-0.8,3.9l-0.7-7c1.1-2.1,2.5-3.8,4.3-4.9c1.8-1.2,3.8-1.7,5.9-1.7c2.6,0,4.8,0.6,6.6,1.7
				c1.8,1.2,3.2,2.9,4.2,5.1c1,2.2,1.4,4.9,1.4,8.1v7.9c0,3.1-0.5,5.7-1.5,7.9s-2.4,3.9-4.3,5s-4.2,1.7-6.8,1.7
				C500.5,595,498.5,594.4,496.8,593.3z"/>
		</g>
	</g>
	<g id="e">
		<g id="e_1_">
			<path d="M562.5,595c0,0-1.2-0.6-3.6-1.9s-4.2-3.1-5.5-5.6c-1.3-2.4-1.9-5.4-1.9-8.9v-4.1c0-3.6,0.6-6.7,1.8-9.2
				c1.2-2.6,3-4.5,5.3-5.8c2.3-1.3,5.1-2,8.3-2c3,0,5.6,0.8,7.8,2.3c2.2,1.5,3.8,3.7,4.9,6.6c1.1,2.9,1.7,6.3,1.7,10.4v2.4h-24.6
				v-5.8h17.8c-0.2-3-1-5.3-2.3-6.9c-1.3-1.7-3.1-2.5-5.3-2.5c-2.7,0-4.8,0.9-6.3,2.7c-1.5,1.8-2.2,4.3-2.2,7.6v4.6
				c0,3,0.8,5.3,2.4,7c1.6,1.6,3.9,2.4,6.8,2.4c1.5,0,2.9-0.3,4.3-0.9c1.4-0.6,2.7-1.4,3.8-2.5l4.7,4.7c-1.8,1.7-3.8,3.1-6.1,4
				s-4.5,1.4-6.8,1.4C564.2,595,562.5,595,562.5,595z"/>
		</g>
	</g>
	<g id="C_1_">
		<g id="C_2_">
			<path d="M628.8,595c0,0-1.3-0.8-4-2.4c-2.7-1.6-4.8-3.8-6.2-6.7s-2.2-6.2-2.2-10v-14c0-3.8,0.7-7.1,2.2-10s3.6-5.1,6.2-6.7
				c2.7-1.6,5.8-2.4,9.3-2.4c2.9,0,5.6,0.6,8.1,1.9s4.5,3,6.2,5.3s2.8,5,3.4,8h-7.3c-0.4-1.6-1.2-3-2.2-4.3c-1-1.3-2.3-2.2-3.7-2.9
				s-2.9-1-4.4-1c-2.1,0-3.9,0.5-5.5,1.5c-1.6,1-2.8,2.4-3.7,4.2c-0.9,1.8-1.3,3.9-1.3,6.3v14c0,2.4,0.4,4.5,1.3,6.3
				c0.9,1.8,2.1,3.2,3.7,4.2c1.6,1,3.4,1.5,5.5,1.5c1.5,0,3-0.3,4.4-0.9c1.4-0.6,2.6-1.6,3.7-2.8c1-1.2,1.8-2.7,2.2-4.4h7.3
				c-0.6,3-1.7,5.7-3.4,8c-1.7,2.3-3.7,4.1-6.2,5.3s-5.1,1.9-8.1,1.9C630.6,595,628.8,595,628.8,595z"/>
		</g>
	</g>
	<g id="C">
		<g id="C_2_">
			<path d="M695.8,595c0,0-1.3-0.8-4-2.4c-2.7-1.6-4.8-3.8-6.2-6.7s-2.2-6.2-2.2-10v-14c0-3.8,0.7-7.1,2.2-10s3.6-5.1,6.2-6.7
				c2.7-1.6,5.8-2.4,9.3-2.4c2.9,0,5.6,0.6,8.1,1.9s4.5,3,6.2,5.3s2.8,5,3.4,8h-7.3c-0.4-1.6-1.2-3-2.2-4.3c-1-1.3-2.3-2.2-3.7-2.9
				s-2.9-1-4.4-1c-2.1,0-3.9,0.5-5.5,1.5c-1.6,1-2.8,2.4-3.7,4.2c-0.9,1.8-1.3,3.9-1.3,6.3v14c0,2.4,0.4,4.5,1.3,6.3
				c0.9,1.8,2.1,3.2,3.7,4.2c1.6,1,3.4,1.5,5.5,1.5c1.5,0,3-0.3,4.4-0.9c1.4-0.6,2.6-1.6,3.7-2.8c1-1.2,1.8-2.7,2.2-4.4h7.3
				c-0.6,3-1.7,5.7-3.4,8c-1.7,2.3-3.7,4.1-6.2,5.3s-5.1,1.9-8.1,1.9C697.6,595,695.8,595,695.8,595z"/>
		</g>
	</g>
	<g>
		<g>
			<path d="M358.3,593.3c-1.9-1.2-3.3-2.9-4.3-5.1s-1.5-4.9-1.5-8v-8.1c0-3.1,0.5-5.8,1.4-8.1c1-2.2,2.4-3.9,4.2-5.1
				c1.8-1.2,4-1.7,6.6-1.7c2.2,0,4.1,0.6,5.9,1.7s3.2,2.7,4.3,4.7l-0.7,7.5c0-1.5-0.3-2.9-0.8-4s-1.4-1.9-2.4-2.5
				c-1.1-0.6-2.4-0.9-3.9-0.9c-2.4,0-4.2,0.7-5.5,2.2s-2,3.6-2,6.2v7.9c0,2.6,0.7,4.7,2,6.1s3.1,2.2,5.5,2.2c1.5,0,2.8-0.3,3.9-0.9
				c1.1-0.6,1.9-1.5,2.4-2.6s0.8-2.5,0.8-4l0.5,7.7c-0.7,1.8-1.9,3.3-3.6,4.5c-1.7,1.2-3.7,1.8-6.1,1.8
				C362.4,595.1,360.2,594.5,358.3,593.3z M374.3,543.3h7.2v51.1h-7.2V543.3z"/>
		</g>
	</g>
	<g>
		<g>
			<path d="M426.2,593.1c-2.3-1.2-4-3.1-5.2-5.4c-1.2-2.4-1.8-5.2-1.8-8.6v-5.9c0-3.3,0.6-6.1,1.8-8.5c1.2-2.4,2.9-4.1,5.2-5.4
				s5-1.8,8.1-1.8s5.9,0.6,8.1,1.8s4,3,5.2,5.4c1.2,2.4,1.8,5.2,1.8,8.5v6c0,3.3-0.6,6.2-1.8,8.5c-1.2,2.4-2.9,4.2-5.2,5.4
				s-5,1.9-8.1,1.9S428.5,594.4,426.2,593.1z M440.2,585.8c1.4-1.6,2.1-3.8,2.1-6.6v-6c0-2.8-0.7-5-2.1-6.6s-3.3-2.3-5.8-2.3
				c-2.5,0-4.4,0.8-5.8,2.3s-2.1,3.7-2.1,6.6v6c0,2.8,0.7,5,2.1,6.6s3.3,2.4,5.8,2.4C436.8,588.2,438.8,587.4,440.2,585.8z"/>
		</g>
	</g>
	<g id="AOBECC">
		<g id="AOBECC_1_">
			<path d="M297.3,543.3h6.1l18.8,51.1h-7.7l-14.2-41.2l-14.2,41.2h-7.7L297.3,543.3z M287.1,576.4H314v6.8h-26.9V576.4z"/>
		</g>
	</g>
	<g>
		<g>
			<path d="M552.4,290h7.2v51.3h-7.2V290z M562.8,325.3c-1.7-1.1-2.9-2.6-3.7-4.6l0.5-7.6c0,1.6,0.3,2.9,0.8,4
				c0.6,1.1,1.4,1.9,2.4,2.5c1.1,0.6,2.4,0.9,3.9,0.9c2.4,0,4.2-0.7,5.5-2.2s2-3.5,2-6.1v-7.9c0-2.7-0.7-4.7-2-6.2s-3.1-2.2-5.5-2.2
				c-1.5,0-2.8,0.3-3.9,0.8c-1.1,0.6-1.9,1.4-2.4,2.5s-0.8,2.4-0.8,3.9l-0.7-7c1.1-2.1,2.5-3.8,4.3-4.9c1.8-1.2,3.8-1.7,5.9-1.7
				c2.6,0,4.8,0.6,6.6,1.7c1.8,1.2,3.2,2.9,4.2,5.1c1,2.2,1.4,4.9,1.4,8.1v7.9c0,3.1-0.5,5.7-1.5,7.9c-1,2.2-2.4,3.9-4.3,5
				s-4.2,1.7-6.8,1.7C566.5,327,564.5,326.4,562.8,325.3z"/>
		</g>
	</g>
	<g>
		<g>
			<path d="M624.4,290h16.5v6.5h-16.5V290z M630.2,324.2c-1.4-1.6-2.1-4-2.1-7.2v-37.6h7.2V317c0,0.9,0.2,1.6,0.5,2.1
				c0.4,0.5,0.9,0.7,1.5,0.7h3.4v6.8h-4.1C633.8,326.6,631.6,325.8,630.2,324.2z"/>
		</g>
	</g>
	<g>
		<g>
			<path d="M630.8,260c0,0-1.2-0.6-3.5-1.9c-2.4-1.2-4.2-3-5.4-5.4c-1.2-2.4-1.9-5.2-1.9-8.6v-6c0-3.3,0.6-6.1,1.9-8.5
				c1.2-2.3,3-4.1,5.4-5.4s5.2-1.8,8.5-1.8c1.9,0,3.7,0.2,5.4,0.7c1.7,0.5,3.2,1.1,4.5,2c1.3,0.9,2.4,1.9,3.3,3.2l-5.2,4.6
				c-1-1.2-2.2-2.1-3.6-2.7c-1.4-0.6-2.8-0.9-4.3-0.9c-2.8,0-4.9,0.8-6.4,2.3c-1.5,1.5-2.3,3.7-2.3,6.5v6c0,2.9,0.8,5.1,2.3,6.7
				c1.5,1.6,3.7,2.4,6.5,2.4c1.5,0,3-0.3,4.4-1c1.4-0.7,2.6-1.6,3.6-2.9l5.2,5c-0.9,1.2-2,2.3-3.4,3.1c-1.3,0.9-2.8,1.5-4.5,2
				c-1.7,0.4-3.5,0.7-5.3,0.7C632.4,260,630.8,260,630.8,260z"/>
		</g>
	</g>
	<g>
		<g>
			<path d="M621.4,190.2c-2.2-1.9-3.3-4.7-3.3-8.5c0-3.6,1-6.3,3.1-8.1c2-1.8,5.1-2.7,9.2-2.7h10.4l0.5,5.8h-10.8
				c-1.9,0-3.3,0.4-4.2,1.2c-0.9,0.8-1.4,2.1-1.4,3.8c0,1.9,0.6,3.2,1.8,4.1c1.2,0.9,3.1,1.3,5.6,1.3c2.7,0,4.8-0.3,6.1-0.9
				c1.3-0.6,2-1.5,2-2.7l0.7,5.1c-0.6,1-1.4,1.8-2.3,2.4c-0.9,0.6-2,1.1-3.2,1.4c-1.2,0.3-2.6,0.5-4.1,0.5
				C627,193,623.6,192,621.4,190.2z M640.4,169.3c0-2.4-0.6-4.2-1.9-5.6c-1.3-1.3-3.1-2-5.4-2c-1.5,0-2.9,0.2-4.3,0.7
				c-1.4,0.4-2.6,1.1-3.7,1.9l-5.2-3.6c1.4-1.7,3.2-3,5.5-3.9c2.3-0.9,4.8-1.4,7.5-1.4c3,0,5.6,0.5,7.8,1.6c2.2,1.1,3.8,2.6,4.9,4.6
				c1.1,2,1.7,4.5,1.7,7.3v23.4h-6.8V169.3z"/>
		</g>
	</g>
	<g id="SASS_1_">
		<g id="SASS_2_">
			<path d="M562.2,193c0,0-1.1-0.2-3.3-0.7c-2.2-0.5-4.3-1.2-6.2-2.1c-1.9-0.9-3.7-2.1-5.4-3.5l4.5-5.5c1.9,1.7,4.1,3,6.4,3.8
				c2.3,0.8,4.9,1.3,7.6,1.3c3.7,0,6.6-0.7,8.6-2.1s3.1-3.3,3.1-5.8v0c0-1.8-0.5-3.2-1.4-4.2c-0.9-1-2.1-1.8-3.6-2.3
				c-1.5-0.5-3.4-1-5.7-1.4c-0.1,0-0.1,0-0.2,0c-0.1,0-0.2,0-0.2,0l-0.5-0.1c-3.4-0.6-6.2-1.2-8.3-2s-4-2.1-5.5-4
				c-1.5-2-2.3-4.7-2.3-8.3v0c0-3.2,0.7-5.9,2.1-8.1c1.4-2.2,3.5-3.9,6.2-5.1c2.7-1.2,6-1.8,9.8-1.8c1.8,0,3.6,0.2,5.4,0.6
				c1.8,0.4,3.5,1,5.2,1.8c1.7,0.8,3.4,1.8,5.1,3l-4.1,5.7c-1.9-1.4-3.9-2.5-5.8-3.2c-1.9-0.7-3.9-1.1-5.8-1.1
				c-3.5,0-6.2,0.7-8.1,2.1c-1.9,1.4-2.9,3.4-2.9,5.9v0c0,1.8,0.5,3.1,1.5,4.1c1,1,2.2,1.8,3.7,2.2c1.5,0.5,3.6,1,6.2,1.5
				c0.1,0,0.2,0,0.3,0.1c0.1,0,0.2,0,0.3,0.1c0.1,0,0.2,0,0.4,0.1c0.1,0,0.3,0,0.4,0.1c3.1,0.6,5.7,1.4,7.8,2.3
				c2.1,0.9,3.8,2.3,5.2,4.2c1.4,1.9,2.1,4.6,2.1,7.9v0.1c0,3.1-0.7,5.8-2.2,8s-3.6,3.9-6.4,5.1c-2.8,1.2-6.2,1.7-10.1,1.7
				C563.4,193,562.2,193,562.2,193z"/>
		</g>
	</g>
	<g>
		<g>
			<path d="M696.2,193c0,0-1.1-0.2-3.3-0.7c-2.2-0.5-4.3-1.2-6.2-2.1c-1.9-0.9-3.7-2.1-5.4-3.5l4.5-5.5c1.9,1.7,4.1,3,6.4,3.8
				c2.3,0.8,4.9,1.3,7.6,1.3c3.7,0,6.6-0.7,8.6-2.1s3.1-3.3,3.1-5.8v0c0-1.8-0.5-3.2-1.4-4.2c-0.9-1-2.1-1.8-3.6-2.3
				c-1.5-0.5-3.4-1-5.7-1.4c-0.1,0-0.1,0-0.2,0c-0.1,0-0.2,0-0.2,0l-0.5-0.1c-3.4-0.6-6.2-1.2-8.3-2s-4-2.1-5.5-4
				c-1.5-2-2.3-4.7-2.3-8.3v0c0-3.2,0.7-5.9,2.1-8.1c1.4-2.2,3.5-3.9,6.2-5.1c2.7-1.2,6-1.8,9.8-1.8c1.8,0,3.6,0.2,5.4,0.6
				c1.8,0.4,3.5,1,5.2,1.8c1.7,0.8,3.4,1.8,5.1,3l-4.1,5.7c-1.9-1.4-3.9-2.5-5.8-3.2c-1.9-0.7-3.9-1.1-5.8-1.1
				c-3.5,0-6.2,0.7-8.1,2.1c-1.9,1.4-2.9,3.4-2.9,5.9v0c0,1.8,0.5,3.1,1.5,4.1c1,1,2.2,1.8,3.7,2.2c1.5,0.5,3.6,1,6.2,1.5
				c0.1,0,0.2,0,0.3,0.1c0.1,0,0.2,0,0.3,0.1c0.1,0,0.2,0,0.4,0.1c0.1,0,0.3,0,0.4,0.1c3.1,0.6,5.7,1.4,7.8,2.3
				c2.1,0.9,3.8,2.3,5.2,4.2c1.4,1.9,2.1,4.6,2.1,7.9v0.1c0,3.1-0.7,5.8-2.2,8s-3.6,3.9-6.4,5.1c-2.8,1.2-6.2,1.7-10.1,1.7
				C697.4,193,696.2,193,696.2,193z"/>
		</g>
	</g>
	<g>
		<g>
			<path d="M763.2,193c0,0-1.1-0.2-3.3-0.7c-2.2-0.5-4.3-1.2-6.2-2.1c-1.9-0.9-3.7-2.1-5.4-3.5l4.5-5.5c1.9,1.7,4.1,3,6.4,3.8
				c2.3,0.8,4.9,1.3,7.6,1.3c3.7,0,6.6-0.7,8.6-2.1s3.1-3.3,3.1-5.8v0c0-1.8-0.5-3.2-1.4-4.2c-0.9-1-2.1-1.8-3.6-2.3
				c-1.5-0.5-3.4-1-5.7-1.4c-0.1,0-0.1,0-0.2,0c-0.1,0-0.2,0-0.2,0l-0.5-0.1c-3.4-0.6-6.2-1.2-8.3-2s-4-2.1-5.5-4
				c-1.5-2-2.3-4.7-2.3-8.3v0c0-3.2,0.7-5.9,2.1-8.1c1.4-2.2,3.5-3.9,6.2-5.1c2.7-1.2,6-1.8,9.8-1.8c1.8,0,3.6,0.2,5.4,0.6
				c1.8,0.4,3.5,1,5.2,1.8c1.7,0.8,3.4,1.8,5.1,3l-4.1,5.7c-1.9-1.4-3.9-2.5-5.8-3.2c-1.9-0.7-3.9-1.1-5.8-1.1
				c-3.5,0-6.2,0.7-8.1,2.1c-1.9,1.4-2.9,3.4-2.9,5.9v0c0,1.8,0.5,3.1,1.5,4.1c1,1,2.2,1.8,3.7,2.2c1.5,0.5,3.6,1,6.2,1.5
				c0.1,0,0.2,0,0.3,0.1c0.1,0,0.2,0,0.3,0.1c0.1,0,0.2,0,0.4,0.1c0.1,0,0.3,0,0.4,0.1c3.1,0.6,5.7,1.4,7.8,2.3
				c2.1,0.9,3.8,2.3,5.2,4.2c1.4,1.9,2.1,4.6,2.1,7.9v0.1c0,3.1-0.7,5.8-2.2,8s-3.6,3.9-6.4,5.1c-2.8,1.2-6.2,1.7-10.1,1.7
				C764.4,193,763.2,193,763.2,193z"/>
		</g>
	</g>
	<g>
		<g>
			<path d="M629.5,126c0,0-1.2-0.6-3.6-1.9s-4.2-3.1-5.5-5.6c-1.3-2.4-1.9-5.4-1.9-8.9v-4.1c0-3.6,0.6-6.7,1.8-9.2
				c1.2-2.6,3-4.5,5.3-5.8c2.3-1.3,5.1-2,8.3-2c3,0,5.6,0.8,7.8,2.3c2.2,1.5,3.8,3.7,4.9,6.6c1.1,2.9,1.7,6.3,1.7,10.4v2.4h-24.6
				v-5.8h17.8c-0.2-3-1-5.3-2.3-6.9c-1.3-1.7-3.1-2.5-5.3-2.5c-2.7,0-4.8,0.9-6.3,2.7c-1.5,1.8-2.2,4.3-2.2,7.6v4.6
				c0,3,0.8,5.3,2.4,7c1.6,1.6,3.9,2.4,6.8,2.4c1.5,0,2.9-0.3,4.3-0.9c1.4-0.6,2.7-1.4,3.8-2.5l4.7,4.7c-1.8,1.7-3.8,3.1-6.1,4
				s-4.5,1.4-6.8,1.4C631.2,126,629.5,126,629.5,126z"/>
		</g>
	</g>
	<g>
		<g>
			<path d="M557.3,121.3c-1.9-1.2-3.3-2.9-4.3-5.1c-1-2.2-1.5-4.9-1.5-8v-8.1c0-3.1,0.5-5.8,1.4-8.1c1-2.2,2.4-3.9,4.2-5.1
				c1.8-1.2,4-1.7,6.6-1.7c2.2,0,4.1,0.6,5.9,1.7s3.2,2.7,4.3,4.7l-0.7,7.5c0-1.5-0.3-2.9-0.8-4c-0.6-1.1-1.4-1.9-2.4-2.5
				c-1.1-0.6-2.4-0.9-3.9-0.9c-2.4,0-4.2,0.7-5.5,2.2s-2,3.6-2,6.2v7.9c0,2.6,0.7,4.7,2,6.1s3.1,2.2,5.5,2.2c1.5,0,2.8-0.3,3.9-0.9
				c1.1-0.6,1.9-1.5,2.4-2.6s0.8-2.5,0.8-4l0.5,7.7c-0.7,1.8-1.9,3.3-3.6,4.5s-3.7,1.8-6.1,1.8C561.4,123.1,559.2,122.5,557.3,121.3
				z M573.3,71.3h7.2v51.1h-7.2V71.3z"/>
		</g>
	</g>
	<g>
		<g>
			<path d="M491.2,121.1c-2.3-1.2-4-3.1-5.2-5.4c-1.2-2.4-1.8-5.2-1.8-8.6v-5.9c0-3.3,0.6-6.1,1.8-8.5c1.2-2.4,2.9-4.1,5.2-5.4
				s5-1.8,8.1-1.8s5.9,0.6,8.1,1.8s4,3,5.2,5.4c1.2,2.4,1.8,5.2,1.8,8.5v6c0,3.3-0.6,6.2-1.8,8.5c-1.2,2.4-2.9,4.2-5.2,5.4
				c-2.3,1.2-5,1.9-8.1,1.9S493.5,122.4,491.2,121.1z M505.2,113.8c1.4-1.6,2.1-3.8,2.1-6.6v-6c0-2.8-0.7-5-2.1-6.6
				s-3.3-2.3-5.8-2.3c-2.5,0-4.4,0.8-5.8,2.3s-2.1,3.7-2.1,6.6v6c0,2.8,0.7,5,2.1,6.6c1.4,1.6,3.3,2.4,5.8,2.4
				C501.8,116.2,503.8,115.4,505.2,113.8z"/>
		</g>
	</g>
	<g id="NODEJS_1_">
		<g id="NODEJS_2_">
			<path d="M415.5,71.3h6.5l25,39.5l-0.8,0.9V71.3h7.1v51.1h-6.6l-24.9-38.9l0.8-0.9v39.8h-7.1V71.3z"/>
		</g>
	</g>
	<g>
		<g>
			<path d="M688.7,124.3c-2.3-1.1-4.1-2.6-5.6-4.6l5.9-4.2c0.7,1.1,1.6,2,2.8,2.7c1.2,0.6,2.7,0.9,4.3,0.9c2.8,0,5-0.9,6.5-2.6
				c1.5-1.7,2.3-4.2,2.3-7.3V74.3h7.2v34.9c0,3.5-0.6,6.6-1.9,9.1c-1.2,2.5-3.1,4.4-5.4,5.7c-2.4,1.3-5.3,2-8.6,2
				C693.5,126,691,125.4,688.7,124.3z"/>
		</g>
	</g>
	<g>
		<g>
			<path d="M763.2,126c0,0-1.1-0.2-3.3-0.7c-2.2-0.5-4.3-1.2-6.2-2.1c-1.9-0.9-3.7-2.1-5.4-3.5l4.5-5.5c1.9,1.7,4.1,3,6.4,3.8
				c2.3,0.8,4.9,1.3,7.6,1.3c3.7,0,6.6-0.7,8.6-2.1s3.1-3.3,3.1-5.8v0c0-1.8-0.5-3.2-1.4-4.2c-0.9-1-2.1-1.8-3.6-2.3
				c-1.5-0.5-3.4-1-5.7-1.4c-0.1,0-0.1,0-0.2,0c-0.1,0-0.2,0-0.2,0l-0.5-0.1c-3.4-0.6-6.2-1.2-8.3-2s-4-2.1-5.5-4
				c-1.5-2-2.3-4.7-2.3-8.3v0c0-3.2,0.7-5.9,2.1-8.1c1.4-2.2,3.5-3.9,6.2-5.1c2.7-1.2,6-1.8,9.8-1.8c1.8,0,3.6,0.2,5.4,0.6
				c1.8,0.4,3.5,1,5.2,1.8c1.7,0.8,3.4,1.8,5.1,3l-4.1,5.7c-1.9-1.4-3.9-2.5-5.8-3.2c-1.9-0.7-3.9-1.1-5.8-1.1
				c-3.5,0-6.2,0.7-8.1,2.1c-1.9,1.4-2.9,3.4-2.9,5.9v0c0,1.8,0.5,3.1,1.5,4.1c1,1,2.2,1.8,3.7,2.2c1.5,0.5,3.6,1,6.2,1.5
				c0.1,0,0.2,0,0.3,0.1c0.1,0,0.2,0,0.3,0.1c0.1,0,0.2,0,0.4,0.1c0.1,0,0.3,0,0.4,0.1c3.1,0.6,5.7,1.4,7.8,2.3
				c2.1,0.9,3.8,2.3,5.2,4.2c1.4,1.9,2.1,4.6,2.1,7.9v0.1c0,3.1-0.7,5.8-2.2,8s-3.6,3.9-6.4,5.1c-2.8,1.2-6.2,1.7-10.1,1.7
				C764.4,126,763.2,126,763.2,126z"/>
		</g>
	</g>
	<g id="CSS_1_">
		<g id="CSS_2_">
			<path d="M762.8,59c0,0-1.3-0.8-4-2.4c-2.7-1.6-4.8-3.8-6.2-6.7s-2.2-6.2-2.2-10v-14c0-3.8,0.7-7.1,2.2-10s3.6-5.1,6.2-6.7
				c2.7-1.6,5.8-2.4,9.3-2.4c2.9,0,5.6,0.6,8.1,1.9c2.5,1.3,4.5,3,6.2,5.3c1.7,2.3,2.8,5,3.4,8h-7.3c-0.4-1.6-1.2-3-2.2-4.3
				c-1-1.3-2.3-2.2-3.7-2.9c-1.4-0.7-2.9-1-4.4-1c-2.1,0-3.9,0.5-5.5,1.5c-1.6,1-2.8,2.4-3.7,4.2c-0.9,1.8-1.3,3.9-1.3,6.3v14
				c0,2.4,0.4,4.5,1.3,6.3c0.9,1.8,2.1,3.2,3.7,4.2c1.6,1,3.4,1.5,5.5,1.5c1.5,0,3-0.3,4.4-0.9c1.4-0.6,2.6-1.6,3.7-2.8
				c1-1.2,1.8-2.7,2.2-4.4h7.3c-0.6,3-1.7,5.7-3.4,8c-1.7,2.3-3.7,4.1-6.2,5.3c-2.5,1.3-5.1,1.9-8.1,1.9C764.6,59,762.8,59,762.8,59
				z"/>
		</g>
	</g>
	<g id="React">
		<g id="React_1_">
			<path d="M616.2,7.3h7.2v51.2h-7.2V7.3z M619.3,30h17.4c1.4,0,2.6-0.3,3.6-1c1.1-0.7,1.9-1.6,2.4-2.8c0.6-1.2,0.9-2.6,0.9-4.2
				c0-1.6-0.3-3-0.9-4.2c-0.6-1.2-1.4-2.1-2.4-2.8c-1-0.7-2.3-1-3.6-1h-17.4V7.3h17.2c3,0,5.5,0.6,7.8,1.8c2.2,1.2,4,2.9,5.2,5.2
				c1.2,2.2,1.8,4.8,1.8,7.8c0,2.9-0.6,5.5-1.9,7.8c-1.2,2.2-3,4-5.2,5.2c-2.2,1.2-4.8,1.8-7.8,1.8h-17.2V30z M633.2,35.2l7.1-1.6
				l13.1,24.8H645L633.2,35.2z"/>
		</g>
	</g>
</g>
<g id="Numbers">
	<text transform="matrix(1 0 0 1 603.1973 12.1558)" class="st2 st3">1</text>
	<text transform="matrix(1 0 0 1 738.1973 12.1558)" class="st2 st3">2</text>
	<text transform="matrix(1 0 0 1 269 211.6797)" class="st2 st3">3</text>
	<text transform="matrix(1 0 0 1 403.1182 78.2368)" class="st2 st3">4</text>
	<text transform="matrix(1 0 0 1 536.25 146)" class="st2 st3">5</text>
	<text transform="matrix(1 0 0 1 3 277.9375)" class="st2 st3">6</text>
	<text transform="matrix(1 0 0 1 469.9082 411.25)" class="st2 st3">7</text>
	<text transform="matrix(1 0 0 1 270.8501 543.793)" class="st2 st3">8</text>
	<text transform="matrix(1 0 0 1 672.5576 79.0259)" class="st2 st3">9</text>
	<text transform="matrix(1 0 0 1 469.1875 211)" class="st2 st3">10</text>
</g>
</svg>
